<?xml version="1.0" standalone="no"?>
<!DOCTYPE svg PUBLIC "-//W3C//DTD SVG 20010904//EN"
 "http://www.w3.org/TR/2001/REC-SVG-20010904/DTD/svg10.dtd">
<svg version="1.0" xmlns="http://www.w3.org/2000/svg"
 width="500.000000pt" height="500.000000pt" viewBox="0 0 500.000000 500.000000"
 preserveAspectRatio="xMidYMid meet">

<g transform="translate(0.000000,500.000000) scale(0.100000,-0.100000)"
fill="#000000" stroke="none">
<path d="M2215 4624 c-16 -8 -36 -21 -43 -28 -8 -7 -179 -341 -381 -742 l-368
-729 -649 -5 c-578 -4 -652 -7 -679 -21 -36 -20 -57 -43 -79 -86 -45 -89 17
-212 117 -232 l31 -7 201 -1000 c111 -549 208 -1017 215 -1038 7 -21 30 -56
51 -77 74 -74 -58 -69 1869 -69 1907 0 1795 -4 1861 63 18 17 40 50 50 72 9
22 108 490 219 1039 110 550 203 1003 205 1007 3 4 20 9 37 13 18 3 46 18 62
32 31 29 65 97 66 130 0 39 -50 122 -88 146 l-37 23 -749 5 -749 5 -369 732
c-405 803 -390 779 -478 777 -51 0 -90 -22 -110 -59 -17 -32 -22 -31 -43 4
-18 31 -71 61 -109 61 -12 0 -36 -7 -53 -16z m525 -818 c184 -365 336 -669
338 -675 3 -8 -176 -11 -678 -11 -437 0 -680 3 -678 10 9 26 674 1339 678
1339 3 0 156 -298 340 -663z m-1344 -1481 c60 -39 59 -27 62 -530 2 -253 0
-485 -3 -514 -6 -44 -14 -62 -39 -87 -60 -60 -154 -51 -196 18 -19 32 -20 49
-20 538 0 489 1 506 20 538 36 59 117 76 176 37z m470 6 c75 -34 74 -23 74
-581 0 -561 2 -547 -77 -582 -50 -22 -88 -18 -128 14 -56 44 -55 35 -55 571
l0 494 23 34 c22 34 78 69 107 69 8 0 33 -9 56 -19z m479 5 c19 -8 44 -30 55
-48 19 -32 20 -49 20 -539 l0 -506 -23 -34 c-13 -19 -39 -40 -61 -48 -52 -20
-111 0 -143 48 l-23 34 0 506 c0 490 1 507 20 539 20 32 67 61 103 62 10 0 33
-6 52 -14z m502 -12 c13 -8 33 -29 43 -47 19 -31 20 -54 20 -525 0 -535 1
-526 -55 -570 -41 -33 -79 -36 -128 -13 -79 38 -77 24 -77 582 0 555 -2 541
73 579 45 23 84 21 124 -6z m468 12 c19 -8 44 -30 55 -48 19 -32 20 -49 20
-538 0 -489 -1 -506 -20 -538 -41 -67 -131 -78 -193 -22 l-32 28 -3 525 -3
524 22 28 c23 28 70 54 102 55 10 0 33 -6 52 -14z"/>
</g>
</svg>
